<svg id="Layer_1" data-name="Layer 1" xmlns="http://www.w3.org/2000/svg" viewBox="0 0 151.26 110.52"><defs><style>.cls-1{fill:#c091a7;}</style></defs><path class="cls-1" d="M189.06,554.25a51.31,51.31,0,0,0,7.26,1.74,55.78,55.78,0,0,0,7.18,1.26,68.81,68.81,0,0,0,8.14.48q7.26,0,7.26-5.37a6,6,0,0,0-2.21-4.19,65.54,65.54,0,0,0-5.61-4.73q-3.39-2.61-7.26-5.77a51.88,51.88,0,0,1-7.26-7.26,37.51,37.51,0,0,1-5.61-9.23,29.59,29.59,0,0,1-2.21-11.77,30.21,30.21,0,0,1,2.69-13.1,26.27,26.27,0,0,1,7.42-9.48A33.4,33.4,0,0,1,210,481.07a46.22,46.22,0,0,1,13.66-2,73.81,73.81,0,0,1,7.57.39l6.79.71c2.32.32,4.58.63,6.79.95v29.53c-.84-.11-1.79-.21-2.84-.32l-2.84-.32c-1.06-.1-2.16-.15-3.32-.15-.63,0-1.42,0-2.37.07a15,15,0,0,0-2.68.4,5.54,5.54,0,0,0-2.21,1.1,2.75,2.75,0,0,0-.95,2.22q0,1.26,2.13,3.15t5.21,4.42q3.09,2.54,6.79,5.85a46.66,46.66,0,0,1,6.79,7.57,44.12,44.12,0,0,1,5.21,9.64,32.26,32.26,0,0,1,2.13,12,37.64,37.64,0,0,1-2.21,13,27.7,27.7,0,0,1-6.86,10.58A32.93,32.93,0,0,1,234.85,587a51.25,51.25,0,0,1-17.21,2.6,103.94,103.94,0,0,1-11.14-.55q-5.13-.55-9.07-1.34a75.64,75.64,0,0,1-8.37-1.9Zm13.26,19c1.47.32,3.05.58,4.74.79,1.47.21,3,.39,4.65.55s3.29.24,5,.24a35.71,35.71,0,0,0,8.6-1,21.52,21.52,0,0,0,7.5-3.39,17.48,17.48,0,0,0,5.29-6.08,19.07,19.07,0,0,0,2-9.08,17.61,17.61,0,0,0-2.29-8.68,40.39,40.39,0,0,0-5.85-7.9,100.3,100.3,0,0,0-7.57-7.26q-4-3.48-7.58-7a43.56,43.56,0,0,1-5.85-7.1,13.43,13.43,0,0,1-2.28-7.34c0-3.79,1.2-6.71,3.63-8.77S218.58,498,224,498c.84,0,1.71,0,2.61.08s1.76.14,2.6.24a19.42,19.42,0,0,0,2.53.16v-4.11a18.26,18.26,0,0,1-2.37-.16c-.74-.1-1.56-.18-2.45-.23s-1.81-.08-2.76-.08q-8.54,0-14.05,3.87t-5.53,12.08a16,16,0,0,0,2.29,8.29,41.26,41.26,0,0,0,5.84,7.57q3.56,3.72,7.58,7.19c2.68,2.31,5.21,4.66,7.58,7a38.9,38.9,0,0,1,5.84,7.35A15,15,0,0,1,236,555.2q0,7.57-5.13,11.53t-14.13,3.94a55.46,55.46,0,0,1-9.79-.79c-1.58-.21-3.11-.47-4.58-.79Z" transform="translate(-188.74 -479.1)"/><path class="cls-1" d="M290.9,509.25H261.84l10.74-27.63H340l-36.63,77.69H338l-10.58,27.63h-73.1Zm28.26,65.06,1.58-3.79H282.37l36-76.27H280.79L279.37,498h32.52l-36,76.27Z" transform="translate(-188.74 -479.1)"/></svg>